<svg width="25" height="25" viewBox="0 0 25 25" fill="none" xmlns="http://www.w3.org/2000/svg">
<path d="M23.8801 5.24911C23.0206 5.63116 22.0956 5.88887 21.125 6.0042C22.116 5.41095 22.8758 4.47125 23.2341 3.35025C22.3072 3.90031 21.2812 4.29945 20.1882 4.51491C19.3135 3.5828 18.0667 3 16.6871 3C14.0383 3 11.8908 5.14755 11.8908 7.79675C11.8908 8.17215 11.933 8.53807 12.0151 8.88974C8.02853 8.68946 4.49373 6.78016 2.12787 3.878C1.71497 4.5861 1.47862 5.41 1.47862 6.2899C1.47862 7.95384 2.3253 9.42224 3.6124 10.2822C2.82647 10.2571 2.08658 10.0411 1.4397 9.68185C1.43923 9.70178 1.43923 9.72219 1.43923 9.74259C1.43923 12.0662 3.09272 14.0045 5.28726 14.4458C4.8848 14.555 4.46098 14.6139 4.02341 14.6139C3.71397 14.6139 3.41355 14.584 3.12072 14.5275C3.73153 16.433 5.50272 17.8202 7.60139 17.8587C5.95976 19.1453 3.89194 19.9122 1.64425 19.9122C1.25746 19.9122 0.875406 19.8895 0.5 19.8449C2.62335 21.2065 5.1444 22 7.85292 22C16.6761 22 21.5004 14.6912 21.5004 8.3525C21.5004 8.14463 21.4962 7.93723 21.4871 7.73125C22.424 7.05638 23.2374 6.21112 23.8801 5.24911Z" fill="black"/>
</svg>
